<svg width="473.00000000000006" height="250" xmlns="http://www.w3.org/2000/svg">
 <defs>
  <style type="text/css">.str0 {stroke:white;stroke-width:0.85;stroke-miterlimit:2.61313}
    .fil4 {fill:none}
    .fil0 {fill:#094C84}
    .fil3 {fill:#FEFEFE;fill-rule:nonzero}
    .fil2 {fill:#094C84;fill-rule:nonzero}
    .fil1 {fill:#DDB304;fill-rule:nonzero}</style>
 </defs>
 <g>
  <title>background</title>
  <rect x="-1" y="-1" width="475" height="252" id="canvas_background" fill="none"/>
 </g>
 <g>
  <title>Layer 1</title>
  <g stroke="null" id="Layer_x0020_1">
   <metadata stroke="null" stroke-width="0" transform="translate(-0.7547169923782349,-1.5094339847564697) translate(1.5094339847564697,-1.132075548171997) translate(-1.132075548171997,0.37735849618911743) translate(0,0.37735849618911743) translate(0,-115.32003784179688) translate(-0.82000732421875,0) translate(-0.10500001907348633,0) translate(0,113.89000701904297) translate(1,1) translate(-0.07499268651008606,0) translate(-0.4299919903278351,0) translate(2,-106) translate(-1,1) translate(-0.3773585855960846,-1.8867954015731812) scale(1.0054165124893188,1) translate(0.3773585855960846,1.8867954015731812) translate(-0.37532562017440796,-1.8867954015731812) scale(1,1.0438939332962036) translate(0.37532562017440796,1.8867954015731812) translate(470.98468017578125,-1.8074588775634766) scale(1.003591537475586,1) translate(-470.98468017578125,1.8074588775634766) " id="CorelCorpID_0Corel-Layer"/>
   <g stroke="null" id="_720847136">
    <g stroke="null" id="svg_1">
     <rect stroke="null" stroke-width="0" class="fil0" x="13.456252" y="14.397299" width="232.495688" height="232.713046" id="svg_2"/>
     <path stroke="null" stroke-width="0" class="fil1" d="m39.882939,85.896405l12.579609,0c7.277373,0 12.569047,-1.913549 15.822212,-5.730078c3.274289,-3.816527 4.900872,-10.011778 4.900872,-18.575178c0,-8.542256 -1.520961,-14.81151 -4.562881,-18.828909c-3.04192,-4.017398 -7.773797,-6.015524 -14.248441,-6.015524l-14.491372,0l0,49.149689l0.000001,0zm-15.378599,13.79659l0,-76.319983l29.869971,0c11.713507,0 20.448467,3.17163 26.194317,9.483173c5.745851,6.311543 8.629337,15.900437 8.629337,28.745537c0,6.988158 -1.056223,13.130547 -3.17923,18.448313c-2.123007,5.328338 -5.217739,9.610038 -9.241946,12.8451c-3.04192,2.42101 -6.50633,4.154835 -10.372104,5.222617c-3.855212,1.046638 -9.284195,1.575243 -16.265826,1.575243l-25.623957,0l-0.010562,0l0.000001,0z" id="svg_3"/>
     <polygon stroke="null" stroke-width="0" class="fil2" points="258.7533340950031,236.1470947265625 258.7533340950031,159.82713317871094 314.1416453800048,159.82713317871094 314.1416453800048,173.09510803222656 274.23754970758455,173.09510803222656 274.23754970758455,189.33383178710938 310.7300221945043,189.33383178710938 310.7300221945043,202.39041137695312 274.23754970758455,202.39041137695312 274.23754970758455,222.03334045410156 316.02172564488137,222.03334045410156 316.02172564488137,236.1470947265625 " id="svg_4"/>
     <path stroke="null" stroke-width="0" id="1" class="fil2" d="m394.372319,209.928273c-0.580922,8.669122 -3.918586,15.572702 -10.023551,20.679026c-6.083842,5.116896 -14.037196,7.664771 -23.828378,7.664771c-11.291018,0 -20.057665,-3.520509 -26.321064,-10.582671c-6.273961,-7.041018 -9.40038,-16.925931 -9.40038,-29.654738c0,-13.003682 3.200354,-22.941456 9.579938,-29.86618c6.379583,-6.914153 15.558157,-10.371229 27.53572,-10.371229c9.717247,0 17.406546,2.368151 23.046774,7.125595c5.65079,4.757444 8.745522,11.460156 9.294758,20.150421l-15.484221,0c-0.654858,-4.313417 -2.41875,-7.611912 -5.27055,-9.874341c-2.862363,-2.262429 -6.738699,-3.393644 -11.597322,-3.393644c-6.897133,0 -12.146558,2.230713 -15.727153,6.692139c-3.591156,4.461426 -5.376172,10.973839 -5.376172,19.526668c0,8.277954 1.785016,14.70579 5.355048,19.209504c3.570032,4.524858 8.6399,6.79786 15.230728,6.79786c4.753001,0 8.661024,-1.215791 11.68182,-3.647374c3.04192,-2.42101 5.006495,-5.930948 5.904283,-10.476951l15.378599,0l0.021124,0.021144l-0.000002,-0.000001z"/>
     <polygon stroke="null" stroke-width="0" id="2" class="fil2" points="406.89907101524295,236.1470947265625 406.89907101524295,159.82713317871094 422.7002167190658,159.82713317871094 422.7002167190658,188.27662658691406 454.2073188414797,188.27662658691406 454.2073188414797,159.82713317871094 470.0083726637531,159.82713317871094 470.0083726637531,236.1470947265625 454.2073188414797,236.1470947265625 454.2073188414797,202.28466796875 422.7002167190658,202.28466796875 422.7002167190658,236.1470947265625 "/>
     <polygon stroke="null" stroke-width="0" class="fil1" points="95.78880305690109,99.6929931640625 95.78880305690109,23.373001098632812 112.21305880192085,23.373001098632812 143.19204109167913,75.81063842773438 143.19204109167913,23.373001098632812 158.67627201785217,23.373001098632812 158.67627201785217,99.6929931640625 142.46326726861298,99.6929931640625 111.27302632627834,47.25538635253906 111.27302632627834,99.6929931640625 " id="svg_5"/>
     <path stroke="null" stroke-width="0" class="fil1" d="m201.801841,38.660266l-10.572787,32.477488l21.17726,0l-10.604473,-32.477488zm-9.1152,-15.287256l18.114215,0l27.504032,76.319983l-16.47707,0l-5.17549,-15.710139l-29.553105,0l-5.017056,15.710139l-16.529882,0l27.134355,-76.319983z" id="svg_6"/>
     <polygon stroke="null" stroke-width="0" class="fil3" points="195.99261573152035,236.1470947265625 195.99261573152035,173.4122772216797 173.41058105099364,173.4122772216797 173.41058105099364,159.82713317871094 234.17503493031836,159.82713317871094 234.17503493031836,173.4122772216797 211.68808233988238,173.4122772216797 211.68808233988238,236.1470947265625 " id="svg_7"/>
     <rect stroke="null" stroke-width="0" y="14.397299" height="232.713046" class="fil0" x="13.456252" width="232.495688" id="svg_8"/>
     <path stroke="null" stroke-width="0" class="fil1" d="m39.882939,85.896405l12.579609,0c7.277373,0 12.569047,-1.913549 15.822212,-5.730078c3.274289,-3.816527 4.900872,-10.011778 4.900872,-18.575178c0,-8.542256 -1.520961,-14.81151 -4.562881,-18.828909c-3.04192,-4.017398 -7.773797,-6.015524 -14.248441,-6.015524l-14.491372,0l0,49.149689m-15.378599,13.79659l0,-76.319983l29.869971,0c11.713507,0 20.448467,3.17163 26.194317,9.483173c5.745851,6.311543 8.629337,15.900437 8.629337,28.745537c0,6.988158 -1.056223,13.130547 -3.17923,18.448313c-2.123007,5.328338 -5.217739,9.610038 -9.241946,12.8451c-3.04192,2.42101 -6.50633,4.154835 -10.372104,5.222617c-3.855212,1.046638 -9.284195,1.575243 -16.265826,1.575243l-25.623957,0" id="svg_9"/>
     <polygon stroke="null" stroke-width="0" class="fil2" points="258.7533340950031,236.1470947265625 258.7533340950031,159.82713317871094 314.1416453800048,159.82713317871094 314.1416453800048,173.09510803222656 274.23754970758455,173.09510803222656 274.23754970758455,189.33383178710938 310.7300221945043,189.33383178710938 310.7300221945043,202.39041137695312 274.23754970758455,202.39041137695312 274.23754970758455,222.03334045410156 316.02172564488137,222.03334045410156 316.02172564488137,236.1470947265625 " id="svg_10"/>
     <path stroke="null" stroke-width="0" id="1" class="fil2" d="m394.372319,209.928273c-0.580922,8.669122 -3.918586,15.572702 -10.023551,20.679026c-6.083842,5.116896 -14.037196,7.664771 -23.828378,7.664771c-11.291018,0 -20.057665,-3.520509 -26.321064,-10.582671c-6.273961,-7.041018 -9.40038,-16.925931 -9.40038,-29.654738c0,-13.003682 3.200354,-22.941456 9.579938,-29.86618c6.379583,-6.914153 15.558157,-10.371229 27.53572,-10.371229c9.717247,0 17.406546,2.368151 23.046774,7.125595c5.65079,4.757444 8.745522,11.460156 9.294758,20.150421l-15.484221,0c-0.654858,-4.313417 -2.41875,-7.611912 -5.27055,-9.874341c-2.862363,-2.262429 -6.738699,-3.393644 -11.597322,-3.393644c-6.897133,0 -12.146558,2.230713 -15.727153,6.692139c-3.591156,4.461426 -5.376172,10.973839 -5.376172,19.526668c0,8.277954 1.785016,14.70579 5.355048,19.209504c3.570032,4.524858 8.6399,6.79786 15.230728,6.79786c4.753001,0 8.661024,-1.215791 11.68182,-3.647374c3.04192,-2.42101 5.006495,-5.930948 5.904283,-10.476951l15.378599,0l0.021124,0.021144l-0.000002,-0.000001z"/>
     <polygon stroke="null" stroke-width="0" id="2" class="fil2" points="406.89907101524295,236.1470947265625 406.89907101524295,159.82713317871094 422.7002167190658,159.82713317871094 422.7002167190658,188.27662658691406 454.2073188414797,188.27662658691406 454.2073188414797,159.82713317871094 470.0083726637531,159.82713317871094 470.0083726637531,236.1470947265625 454.2073188414797,236.1470947265625 454.2073188414797,202.28466796875 422.7002167190658,202.28466796875 422.7002167190658,236.1470947265625 "/>
     <polygon stroke="null" stroke-width="0" class="fil1" points="95.78880305690109,99.6929931640625 95.78880305690109,23.373001098632812 112.21305880192085,23.373001098632812 143.19204109167913,75.81063842773438 143.19204109167913,23.373001098632812 158.67627201785217,23.373001098632812 158.67627201785217,99.6929931640625 142.46326726861298,99.6929931640625 111.27302632627834,47.25538635253906 111.27302632627834,99.6929931640625 " id="svg_11"/>
     <path stroke="null" stroke-width="0" class="fil1" d="m201.801841,38.660266l-10.572787,32.477488l21.17726,0l-10.604473,-32.477488zm-9.1152,-15.287256l18.114215,0l27.504032,76.319983l-16.47707,0l-5.17549,-15.710139l-29.553105,0l-5.017056,15.710139l-16.529882,0l27.134355,-76.319983z" id="svg_12"/>
     <polygon stroke="null" stroke-width="0" class="fil3" points="195.99261573152035,236.1470947265625 195.99261573152035,173.4122772216797 173.41058105099364,173.4122772216797 173.41058105099364,159.82713317871094 234.17503493031836,159.82713317871094 234.17503493031836,173.4122772216797 211.68808233988238,173.4122772216797 211.68808233988238,236.1470947265625 " id="svg_13"/>
    </g>
    <rect stroke="null" stroke-width="0" class="fil4 str0" x="-2.079435" y="-1.886795" width="475.615204" height="252.998054" id="svg_14"/>
   </g>
  </g>
 </g>
</svg>