<?xml version="1.0" encoding="UTF-8" standalone="yes"?>
<!DOCTYPE svg PUBLIC "-//W3C//DTD SVG 1.1//EN" "http://www.w3.org/Graphics/SVG/1.1/DTD/svg11.dtd">
<!-- Creator: CorelDRAW Home & Student 2018 --><svg xmlns="http://www.w3.org/2000/svg" xmlns:xlink="http://www.w3.org/1999/xlink" height="3.84028in" style="shape-rendering:geometricPrecision; text-rendering:geometricPrecision; image-rendering:optimizeQuality; fill-rule:evenodd; clip-rule:evenodd;zoom: 1;" cursor="crosshair" xml:space="preserve" width="3.84028in" version="1.1" viewBox="0 0 471.21 471.21"><defs><style type="text/css">
   
    .str0 {stroke:white;stroke-width:0.85;stroke-miterlimit:2.61313}
    .fil4 {fill:none}
    .fil0 {fill:#094C84}
    .fil3 {fill:#FEFEFE;fill-rule:nonzero}
    .fil2 {fill:#094C84;fill-rule:nonzero}
    .fil1 {fill:#DDB304;fill-rule:nonzero}
   
  </style></defs><g id="Layer_x0020_1"><metadata id="CorelCorpID_0Corel-Layer"></metadata><g id="_720847136"><g><rect class="fil0" x="18.96" y="123.46" width="220.12" height="220.12"></rect><path class="fil1" d="M43.98 191.09l11.91 0c6.89,0 11.9,-1.81 14.98,-5.42 3.1,-3.61 4.64,-9.47 4.64,-17.57 0,-8.08 -1.44,-14.01 -4.32,-17.81 -2.88,-3.8 -7.36,-5.69 -13.49,-5.69l-13.72 0 0 46.49zm-14.56 13.05l0 -72.19 28.28 0c11.09,0 19.36,3 24.8,8.97 5.44,5.97 8.17,15.04 8.17,27.19 0,6.61 -1,12.42 -3.01,17.45 -2.01,5.04 -4.94,9.09 -8.75,12.15 -2.88,2.29 -6.16,3.93 -9.82,4.94 -3.65,0.99 -8.79,1.49 -15.4,1.49l-24.26 0z"></path><polygon class="fil2" points="251.2,333.21 251.2,261.02 303.64,261.02 303.64,273.57 265.86,273.57 265.86,288.93 300.41,288.93 300.41,301.28 265.86,301.28 265.86,319.86 305.42,319.86 305.42,333.21"></polygon><path id="1" class="fil2" d="M379.6 308.41c-0.55,8.2 -3.71,14.73 -9.49,19.56 -5.76,4.84 -13.29,7.25 -22.56,7.25 -10.69,0 -18.99,-3.33 -24.92,-10.01 -5.94,-6.66 -8.9,-16.01 -8.9,-28.05 0,-12.3 3.03,-21.7 9.07,-28.25 6.04,-6.54 14.73,-9.81 26.07,-9.81 9.2,0 16.48,2.24 21.82,6.74 5.35,4.5 8.28,10.84 8.8,19.06l-14.66 0c-0.62,-4.08 -2.29,-7.2 -4.99,-9.34 -2.71,-2.14 -6.38,-3.21 -10.98,-3.21 -6.53,0 -11.5,2.11 -14.89,6.33 -3.4,4.22 -5.09,10.38 -5.09,18.47 0,7.83 1.69,13.91 5.07,18.17 3.38,4.28 8.18,6.43 14.42,6.43 4.5,0 8.2,-1.15 11.06,-3.45 2.88,-2.29 4.74,-5.61 5.59,-9.91l14.56 0z"></path><polygon id="2" class="fil2" points="391.46,333.21 391.46,261.02 406.42,261.02 406.42,287.93 436.25,287.93 436.25,261.02 451.21,261.02 451.21,333.21 436.25,333.21 436.25,301.18 406.42,301.18 406.42,333.21"></polygon><polygon class="fil1" points="96.91,204.14 96.91,131.95 112.46,131.95 141.79,181.55 141.79,131.95 156.45,131.95 156.45,204.14 141.1,204.14 111.57,154.54 111.57,204.14"></polygon><path class="fil1" d="M197.28 146.41l-10.01 30.72 20.05 0 -10.04 -30.72zm-8.63 -14.46l17.15 0 26.04 72.19 -15.6 0 -4.9 -14.86 -27.98 0 -4.75 14.86 -15.65 0 25.69 -72.19z"></path><polygon class="fil3" points="191.78,333.21 191.78,273.87 170.4,273.87 170.4,261.02 227.93,261.02 227.93,273.87 206.64,273.87 206.64,333.21"></polygon><rect y="123.46" height="220.12" class="fil0" x="18.96" width="220.12"></rect><path class="fil1" d="M43.98,191.09 l11.91,0 c6.89,0 11.9,-1.81 14.98,-5.42 c3.1,-3.61 4.64,-9.47 4.64,-17.57 c0,-8.08 -1.44,-14.01 -4.32,-17.81 c-2.88,-3.8 -7.36,-5.69 -13.49,-5.69 l-13.72,0 l0,46.49 m-14.56,13.05 l0,-72.19 l28.28,0 c11.09,0 19.36,3 24.8,8.97 c5.44,5.97 8.17,15.04 8.17,27.19 c0,6.61 -1,12.42 -3.01,17.45 c-2.01,5.04 -4.94,9.09 -8.75,12.15 c-2.88,2.29 -6.16,3.93 -9.82,4.94 c-3.65,0.99 -8.79,1.49 -15.4,1.49 l-24.26,0 "></path><polygon class="fil2" points="251.2,333.21 251.2,261.02 303.64,261.02 303.64,273.57 265.86,273.57 265.86,288.93 300.41,288.93 300.41,301.28 265.86,301.28 265.86,319.86 305.42,319.86 305.42,333.21"></polygon><path id="1" class="fil2" d="M379.6 308.41c-0.55,8.2 -3.71,14.73 -9.49,19.56 -5.76,4.84 -13.29,7.25 -22.56,7.25 -10.69,0 -18.99,-3.33 -24.92,-10.01 -5.94,-6.66 -8.9,-16.01 -8.9,-28.05 0,-12.3 3.03,-21.7 9.07,-28.25 6.04,-6.54 14.73,-9.81 26.07,-9.81 9.2,0 16.48,2.24 21.82,6.74 5.35,4.5 8.28,10.84 8.8,19.06l-14.66 0c-0.62,-4.08 -2.29,-7.2 -4.99,-9.34 -2.71,-2.14 -6.38,-3.21 -10.98,-3.21 -6.53,0 -11.5,2.11 -14.89,6.33 -3.4,4.22 -5.09,10.38 -5.09,18.47 0,7.83 1.69,13.91 5.07,18.17 3.38,4.28 8.18,6.43 14.42,6.43 4.5,0 8.2,-1.15 11.06,-3.45 2.88,-2.29 4.74,-5.61 5.59,-9.91l14.56 0z"></path><polygon id="2" class="fil2" points="391.46,333.21 391.46,261.02 406.42,261.02 406.42,287.93 436.25,287.93 436.25,261.02 451.21,261.02 451.21,333.21 436.25,333.21 436.25,301.18 406.42,301.18 406.42,333.21"></polygon><polygon class="fil1" points="96.91,204.14 96.91,131.95 112.46,131.95 141.79,181.55 141.79,131.95 156.45,131.95 156.45,204.14 141.1,204.14 111.57,154.54 111.57,204.14"></polygon><path class="fil1" d="M197.28 146.41l-10.01 30.72 20.05 0 -10.04 -30.72zm-8.63 -14.46l17.15 0 26.04 72.19 -15.6 0 -4.9 -14.86 -27.98 0 -4.75 14.86 -15.65 0 25.69 -72.19z"></path><polygon class="fil3" points="191.78,333.21 191.78,273.87 170.4,273.87 170.4,261.02 227.93,261.02 227.93,273.87 206.64,273.87 206.64,333.21 "></polygon></g><rect class="fil4 str0" x="0.43" y="0.43" width="470.36" height="470.36"></rect></g></g></svg>