<svg width="471.21" height="471.21" xmlns="http://www.w3.org/2000/svg">
 <defs>
  <style type="text/css">.str0 {stroke:white;stroke-width:0.85;stroke-miterlimit:2.61313}
    .fil4 {fill:none}
    .fil0 {fill:#094C84}
    .fil3 {fill:#FEFEFE;fill-rule:nonzero}
    .fil2 {fill:#094C84;fill-rule:nonzero}
    .fil1 {fill:#DDB304;fill-rule:nonzero}</style>
 </defs>
 <g>
  <title>background</title>
  <rect fill="none" id="canvas_background" height="402" width="582" y="-1" x="-1"/>
 </g>
 <g>
  <title>Layer 1</title>
  <g stroke="null" id="Layer_x0020_1">
   <metadata stroke="null" transform="translate(1,0) translate(1.4299999475479126,0.4300000071525574) scale(1.019134283065796,1.0297644138336182) translate(-1.4299999475479126,-0.4300000071525574) translate(471.7631530761719,470.7775573730469) scale(1.027119517326355,1.0247749090194702) translate(-471.7631530761719,-470.7775573730469) " id="CorelCorpID_0Corel-Layer"/>
   <g stroke="null" id="_720847136">
    <g stroke="null" id="svg_1">
     <rect stroke="null" id="svg_2" height="232.287515" width="230.41561" y="118.260722" x="7.826686" class="fil0"/>
     <path stroke="null" id="svg_3" d="m34.01694,189.629088l12.467063,0c7.212264,0 12.456595,-1.910051 15.680655,-5.7196c3.244995,-3.809549 4.857025,-9.993471 4.857025,-18.541212c0,-8.526636 -1.507353,-14.784427 -4.522058,-18.794479c-3.014705,-4.010052 -7.704247,-6.004525 -14.120964,-6.004525l-14.361722,0l0,49.059815zm-15.241011,13.771361l0,-76.180427l29.602732,0c11.608709,0 20.26552,3.16583 25.959963,9.465832c5.694444,6.300002 8.552133,15.871362 8.552133,28.692974c0,6.975379 -1.046773,13.106537 -3.150786,18.414579c-2.104013,5.318595 -5.171057,9.592466 -9.159261,12.821612c-3.014705,2.416584 -6.44812,4.147238 -10.279308,5.213067c-3.82072,1.044724 -9.201132,1.572362 -16.1203,1.572362l-25.394706,0l-0.010468,0z" class="fil1"/>
     <polygon stroke="null" id="svg_4" points="250.9291676545945,339.60500530146965 250.9291676545945,263.42458708467893 305.82194783054365,263.42458708467893 305.82194783054365,276.66832041282396 266.2748686194682,276.66832041282396 266.2748686194682,292.87735852989135 302.4408664750772,292.87735852989135 302.4408664750772,305.91002600534557 266.2748686194682,305.91002600534557 266.2748686194682,325.5170711098581 307.68520056090347,325.5170711098581 307.68520056090347,339.60500530146965 " class="fil2"/>
     <path stroke="null" d="m385.334797,313.434154c-0.575725,8.653269 -3.883527,15.544226 -9.933873,20.641213c-6.029411,5.107539 -13.911609,7.650756 -23.615192,7.650756c-11.19,0 -19.878214,-3.514072 -26.085576,-10.56332c-6.21783,-7.028143 -9.316277,-16.894981 -9.316277,-29.600512c0,-12.979904 3.171721,-22.899505 9.494229,-29.811568c6.322507,-6.90151 15.418962,-10.352265 27.289365,-10.352265c9.630309,0 17.250814,2.36382 22.840581,7.112565c5.600234,4.748745 8.667278,11.4392 9.2116,20.113575l-15.345688,0c-0.648999,-4.305529 -2.39711,-7.597992 -5.223396,-9.856285c-2.836754,-2.258292 -6.67841,-3.387438 -11.493564,-3.387438c-6.835426,0 -12.037886,2.226634 -15.586446,6.679902c-3.559027,4.453268 -5.328073,10.953772 -5.328073,19.490961c0,8.262817 1.769046,14.678899 5.307138,19.174378c3.538092,4.516584 8.562601,6.785429 15.094463,6.785429c4.710477,0 8.583536,-1.213568 11.577306,-3.640705c3.014705,-2.416584 4.961703,-5.920102 5.851459,-10.457792l15.241011,0l0.020935,0.021106z" class="fil2" id="1"/>
     <polygon stroke="null" points="397.7495207736538,339.60500530146965 397.7495207736538,263.42458708467893 413.4092692984668,263.42458708467893 413.4092692984668,291.822091813734 444.63447998615084,291.822091813734 444.63447998615084,263.42458708467893 460.29419716576376,263.42458708467893 460.29419716576376,339.60500530146965 444.63447998615084,339.60500530146965 444.63447998615084,305.80450871582434 413.4092692984668,305.80450871582434 413.4092692984668,339.60500530146965 " class="fil2" id="2"/>
     <polygon stroke="null" id="svg_5" points="89.4226244173542,203.400448340195 89.4226244173542,127.22001448658011 105.69993607480774,127.22001448658011 136.40176811989295,179.5617502410878 136.40176811989295,127.22001448658011 151.74746908476664,127.22001448658011 151.74746908476664,203.400448340195 135.67951201887263,203.400448340195 104.76830970962783,151.05871258568732 104.76830970962783,203.400448340195 " class="fil1"/>
     <path stroke="null" id="svg_6" d="m194.487196,142.479323l-10.478195,32.418101l20.987793,0l-10.509598,-32.418101zm-9.033649,-15.259302l17.952152,0l27.257961,76.180427l-16.329654,0l-5.129186,-15.681412l-29.288701,0l-4.97217,15.681412l-16.381993,0l26.891591,-76.180427z" class="fil1"/>
     <polygon stroke="null" id="svg_7" points="188.72994671293782,339.60500530146965 188.72994671293782,276.984903555036 166.34994400974392,276.984903555036 166.34994400974392,263.42458708467893 226.57076562842303,263.42458708467893 226.57076562842303,276.984903555036 204.28498659677098,276.984903555036 204.28498659677098,339.60500530146965 " class="fil3"/>
     <rect stroke="null" id="svg_8" width="230.41561" x="7.826686" class="fil0" height="232.287515" y="118.260722"/>
     <path stroke="null" id="svg_9" d="m34.01694,189.629088l12.467063,0c7.212264,0 12.456595,-1.910051 15.680655,-5.7196c3.244995,-3.809549 4.857025,-9.993471 4.857025,-18.541212c0,-8.526636 -1.507353,-14.784427 -4.522058,-18.794479c-3.014705,-4.010052 -7.704247,-6.004525 -14.120964,-6.004525l-14.361722,0l0,49.059815m-15.241011,13.771361l0,-76.180427l29.602732,0c11.608709,0 20.26552,3.16583 25.959963,9.465832c5.694444,6.300002 8.552133,15.871362 8.552133,28.692974c0,6.975379 -1.046773,13.106537 -3.150786,18.414579c-2.104013,5.318595 -5.171057,9.592466 -9.159261,12.821612c-3.014705,2.416584 -6.44812,4.147238 -10.279308,5.213067c-3.82072,1.044724 -9.201132,1.572362 -16.1203,1.572362l-25.394706,0" class="fil1"/>
     <polygon stroke="null" id="svg_10" points="250.9291676545945,339.60500530146965 250.9291676545945,263.42458708467893 305.82194783054365,263.42458708467893 305.82194783054365,276.66832041282396 266.2748686194682,276.66832041282396 266.2748686194682,292.87735852989135 302.4408664750772,292.87735852989135 302.4408664750772,305.91002600534557 266.2748686194682,305.91002600534557 266.2748686194682,325.5170711098581 307.68520056090347,325.5170711098581 307.68520056090347,339.60500530146965 " class="fil2"/>
     <path stroke="null" d="m385.334797,313.434154c-0.575725,8.653269 -3.883527,15.544226 -9.933873,20.641213c-6.029411,5.107539 -13.911609,7.650756 -23.615192,7.650756c-11.19,0 -19.878214,-3.514072 -26.085576,-10.56332c-6.21783,-7.028143 -9.316277,-16.894981 -9.316277,-29.600512c0,-12.979904 3.171721,-22.899505 9.494229,-29.811568c6.322507,-6.90151 15.418962,-10.352265 27.289365,-10.352265c9.630309,0 17.250814,2.36382 22.840581,7.112565c5.600234,4.748745 8.667278,11.4392 9.2116,20.113575l-15.345688,0c-0.648999,-4.305529 -2.39711,-7.597992 -5.223396,-9.856285c-2.836754,-2.258292 -6.67841,-3.387438 -11.493564,-3.387438c-6.835426,0 -12.037886,2.226634 -15.586446,6.679902c-3.559027,4.453268 -5.328073,10.953772 -5.328073,19.490961c0,8.262817 1.769046,14.678899 5.307138,19.174378c3.538092,4.516584 8.562601,6.785429 15.094463,6.785429c4.710477,0 8.583536,-1.213568 11.577306,-3.640705c3.014705,-2.416584 4.961703,-5.920102 5.851459,-10.457792l15.241011,0l0.020935,0.021106z" class="fil2" id="1"/>
     <polygon stroke="null" points="397.7495207736538,339.60500530146965 397.7495207736538,263.42458708467893 413.4092692984668,263.42458708467893 413.4092692984668,291.822091813734 444.63447998615084,291.822091813734 444.63447998615084,263.42458708467893 460.29419716576376,263.42458708467893 460.29419716576376,339.60500530146965 444.63447998615084,339.60500530146965 444.63447998615084,305.80450871582434 413.4092692984668,305.80450871582434 413.4092692984668,339.60500530146965 " class="fil2" id="2"/>
     <polygon stroke="null" id="svg_11" points="89.4226244173542,203.400448340195 89.4226244173542,127.22001448658011 105.69993607480774,127.22001448658011 136.40176811989295,179.5617502410878 136.40176811989295,127.22001448658011 151.74746908476664,127.22001448658011 151.74746908476664,203.400448340195 135.67951201887263,203.400448340195 104.76830970962783,151.05871258568732 104.76830970962783,203.400448340195 " class="fil1"/>
     <path stroke="null" id="svg_12" d="m194.487196,142.479323l-10.478195,32.418101l20.987793,0l-10.509598,-32.418101zm-9.033649,-15.259302l17.952152,0l27.257961,76.180427l-16.329654,0l-5.129186,-15.681412l-29.288701,0l-4.97217,15.681412l-16.381993,0l26.891591,-76.180427z" class="fil1"/>
     <polygon stroke="null" id="svg_13" points="188.72994671293782,339.60500530146965 188.72994671293782,276.984903555036 166.34994400974392,276.984903555036 166.34994400974392,263.42458708467893 226.57076562842303,263.42458708467893 226.57076562842303,276.984903555036 204.28498659677098,276.984903555036 204.28498659677098,339.60500530146965 " class="fil3"/>
    </g>
    <rect stroke="null" id="svg_14" height="496.359964" width="492.360013" y="-11.569974" x="-11.570012" class="fil4 str0"/>
   </g>
  </g>
 </g>
</svg>